<?xml version="1.0" encoding="UTF-8"?>
<!-- Created with Inkscape (http://www.inkscape.org/) -->
<svg width="128" height="128" version="1.1" viewBox="0 0 128 128" xmlns="http://www.w3.org/2000/svg" xmlns:cc="http://creativecommons.org/ns#" xmlns:dc="http://purl.org/dc/elements/1.1/" xmlns:rdf="http://www.w3.org/1999/02/22-rdf-syntax-ns#">
 <metadata>
  <rdf:RDF>
   <cc:Work rdf:about="">
    <dc:format>image/svg+xml</dc:format>
    <dc:type rdf:resource="http://purl.org/dc/dcmitype/StillImage"/>
    <dc:title/>
   </cc:Work>
  </rdf:RDF>
 </metadata>
 <g transform="translate(0 -263.13)">
  <path transform="translate(0 263.13)" d="m63.971 6a2.0002 2.0002 0 0 0 -1.3848 0.58594l-4 4a2.0002 2.0002 0 0 0 -0.58594 1.4141v18h-10a2.0002 2.0002 0 0 0 -1.1094 3.6641l11.43 7.6191 0.30469 0.91602c-10.954-0.96302-26.205-4.1543-26.205-4.1543a2.0002 2.0002 0 0 0 -2.4199 1.9551v19.666l-13.23-5.5117a2.0002 2.0002 0 0 0 -2.2266 3.2168l43.09 45.781 4.6309 8.1035a2.0002 2.0002 0 0 0 3.4727 0l4.6309-8.1035 43.09-45.781a2.0002 2.0002 0 0 0 -2.2266 -3.2168l-13.23 5.5117v-19.666a2.0002 2.0002 0 0 0 -2.4199 -1.9551s-15.252 3.1913-26.205 4.1543l0.30469-0.91602 11.43-7.6191a2.0002 2.0002 0 0 0 -1.1094 -3.6641h-10v-18a2.0002 2.0002 0 0 0 -0.58594 -1.4141l-4-4a2.0002 2.0002 0 0 0 -1.4434 -0.58594zm-25.383 38.75a1.8168 1.8168 0 0 1 0.36133 0.041016s17.001 3.5938 25.051 3.5938 25.051-3.5938 25.051-3.5938a1.8168 1.8168 0 0 1 2.1992 1.7754v21.801a1.8168 1.8168 0 0 1 -0.44922 1.1953l-25.434 29.068a1.8168 1.8168 0 0 1 -2.7344 0l-25.434-29.068a1.8168 1.8168 0 0 1 -0.44922 -1.1953v-21.801a1.8168 1.8168 0 0 1 1.8379 -1.8164zm1.7949 4.0195v18.916l23.617 26.99 23.617-26.99v-18.916c-3.1365 0.66487-15.59 3.248-23.617 3.248s-20.481-2.5832-23.617-3.248z" fill="#333" stroke-width="0"/>
 </g>
</svg>
