<?xml version="1.0" encoding="UTF-8"?>
<!-- Created with Inkscape (http://www.inkscape.org/) -->
<svg width="128" height="128" version="1.1" viewBox="0 0 128 128" xmlns="http://www.w3.org/2000/svg" xmlns:cc="http://creativecommons.org/ns#" xmlns:dc="http://purl.org/dc/elements/1.1/" xmlns:rdf="http://www.w3.org/1999/02/22-rdf-syntax-ns#">
 <metadata>
  <rdf:RDF>
   <cc:Work rdf:about="">
    <dc:format>image/svg+xml</dc:format>
    <dc:type rdf:resource="http://purl.org/dc/dcmitype/StillImage"/>
    <dc:title/>
   </cc:Work>
  </rdf:RDF>
 </metadata>
 <g transform="translate(0 -263.13)">
  <path transform="translate(0 263.13)" d="m63.982 11c-19.946 0.35784-40.747 19.165-37.098 47.877-0.43737-0.0632-0.50491-0.12695-1.1348-0.12695-1.3833 0-3.1624 0.24834-4.457 1.543s-1.8112 3.509-1.0137 6.6992c0.79534 3.1814 2.844 7.4867 6.8574 13.514 0.031749 0.057121 5.0399 9.0633 12.074 18.107 3.5283 4.5364 7.5643 9.0849 11.781 12.535 4.217 3.4502 8.6328 5.8516 13.008 5.8516s8.7909-2.4013 13.008-5.8516c4.217-3.4502 8.2529-7.9987 11.781-12.535 7.0567-9.0729 12.086-18.127 12.086-18.127 4.0047-6.0166 6.0512-10.316 6.8457-13.494 0.79756-3.1902 0.28096-5.4046-1.0137-6.6992s-3.0737-1.543-4.457-1.543c-0.61356 0-0.67263 0.061797-1.1055 0.12305 2.3933-13.305 0.67986-24.432-5.3613-32.609-6.2481-8.4578-16.927-13.69-31.678-15.258-0.04085-5e-3 -0.08195-0.006859-0.12305-0.005859zm-28.02 45.002c0.10006-0.0039 0.20014 0.007303 0.29688 0.033203l26 7c0.80478 0.21697 1.0066 1.2654 0.33984 1.7656l-4 3c-0.02766 0.0203-0.056337 0.039241-0.085937 0.056641l-5 3c-0.15517 0.093184-0.3327 0.1424-0.51367 0.14258h-11c-0.45916 1.8e-4 -0.85946-0.31232-0.9707-0.75781l-1-4c-0.1256-0.50646 0.1593-1.0244 0.6543-1.1895l4.0078-1.3359-9.2285-5.873c-0.8248-0.52767-0.47841-1.8037 0.5-1.8418zm55.766 0c0.97841 0.0381 1.3248 1.3141 0.5 1.8418l-9.2285 5.873 4.0078 1.3359c0.495 0.16508 0.77989 0.68299 0.6543 1.1895l-1 4c-0.11124 0.44549-0.51154 0.75799-0.9707 0.75781h-11c-0.18097-1.8e-4 -0.3585-0.0494-0.51367-0.14258l-5-3c-0.0296-0.0174-0.058277-0.036341-0.085937-0.056641l-4-3c-0.66674-0.5002-0.46494-1.5487 0.33984-1.7656l26-7c0.09674-0.0259 0.19681-0.037103 0.29688-0.033203zm-35.729 30.998h16c0.89064 3.5e-4 1.3366 1.077 0.70703 1.707l-8 8c-0.39053 0.39037-1.0235 0.39037-1.4141 0l-8-8c-0.62955-0.62999-0.1836-1.7067 0.70703-1.707z" fill="#333" stroke-width="0"/>
 </g>
</svg>
